<svg xmlns="http://www.w3.org/2000/svg" viewBox="0 0 32 32">
  <rect width="32" height="32" rx="6" fill="#1f2937"/>
  <g transform="translate(4, 3) scale(0.042)" fill="white">
    <path d="M480.8 18.5c-3.6-1.2-7.5-0.6-10.5 1.8L444.1 41c-21.2-14.2-46.6-22.5-73.9-22.5C290.3 18.5 224 84.8 224 164.7c0 11.4 1.3 22.5 3.8 33.2L58.3 351.6c-7.9 7.1-8.5 19.3-1.4 27.2l56 62.5c3.8 4.3 9.3 6.7 14.9 6.7c0.7 0 1.5 0 2.2-0.1c6.4-0.7 12-4.4 15-10l62.3-115.8c22.5 12.8 48.5 20.1 76.1 20.1c79.8 0 144.7-64.8 144.7-144.7c0-20.8-4.4-40.6-12.3-58.5l73.5-69.8c3.3-3.1 5-7.5 4.7-12C493.7 53.2 488.9 21.2 480.8 18.5zM370.2 260.6c-52.9 0-95.9-43-95.9-95.9s43-95.9 95.9-95.9c52.9 0 95.9 43 95.9 95.9S423.1 260.6 370.2 260.6z"/>
    <circle cx="390" cy="155" r="30"/>
  </g>
</svg>
